<!--?xml version="1.0" encoding="utf-8"?-->
<!-- Generator: Adobe Illustrator 18.1.1, SVG Export Plug-In . SVG Version: 6.00 Build 0)  -->

<svg version="1.1" id="_x32_" xmlns="http://www.w3.org/2000/svg" xmlns:xlink="http://www.w3.org/1999/xlink" x="0px" y="0px" viewBox="0 0 512 512" style="width: 256px; height: 256px; opacity: 1;" xml:space="preserve">
<style type="text/css">
	.st0{fill:#4B4B4B;}
</style>
<g>
	<path class="st0" d="M490.013,171.964H340.031V21.992C340.031,9.845,330.177,0,318.032,0h-124.08c-12.146,0-22,9.845-22,21.992
		v149.973H21.987c-12.146,0-21.983,9.845-21.983,21.992v124.096c0,12.145,9.837,21.983,21.983,21.983h149.966v149.981
		c0,12.138,9.853,21.983,22,21.983h124.08c12.146,0,21.999-9.845,21.999-21.983V340.036h149.982
		c12.146,0,21.983-9.838,21.983-21.983V193.956C511.996,181.81,502.159,171.964,490.013,171.964z M92.897,293.499l-59.072-37.496
		l59.072-37.503V293.499z M256,478.179l-37.495-59.072h74.974L256,478.179z M218.505,92.9l37.479-59.08l37.495,59.08H218.505z
		 M419.103,293.499v-74.998l59.072,37.496L419.103,293.499z" style="fill: rgb(255, 255, 255);"></path>
</g>
</svg>
