<svg xmlns="http://www.w3.org/2000/svg" viewBox="0 0 44 44"><title>grid-9@1x</title><g id="Layer_2" data-name="Layer 2"><g id="Miscellaneous"><g id="Grid_9_2x.png" data-name="Grid 9@2x.png"><path d="M4,14H14V4H4ZM6,6h6v6H6ZM4,27H14V17H4Zm2-8h6v6H6ZM4,40H14V30H4Zm2-8h6v6H6ZM40,0H4A4,4,0,0,0,0,4V40a4,4,0,0,0,4,4H40a4,4,0,0,0,4-4V4A4,4,0,0,0,40,0Zm2,40a2,2,0,0,1-2,2H4a2,2,0,0,1-2-2V4A2,2,0,0,1,4,2H40a2,2,0,0,1,2,2ZM30,40H40V30H30Zm2-8h6v6H32Zm-2-5H40V17H30Zm2-8h6v6H32Zm-2-5H40V4H30Zm2-8h6v6H32ZM17,27H27V17H17Zm2-8h6v6H19Zm-2-5H27V4H17Zm2-8h6v6H19ZM17,40H27V30H17Zm2-8h6v6H19Z"/></g></g></g></svg>