<?xml version="1.0"?>
<svg xmlns="http://www.w3.org/2000/svg" xmlns:xlink="http://www.w3.org/1999/xlink" version="1.1" viewBox="0 0 224 224" width="60px" height="60px"><g fill="none" fill-rule="nonzero" stroke="none" stroke-width="1" stroke-linecap="butt" stroke-linejoin="miter" stroke-miterlimit="10" stroke-dasharray="" stroke-dashoffset="0" font-family="none" font-weight="none" font-size="none" text-anchor="none" style="mix-blend-mode: normal"><path d="M0,224v-224h224v224z" fill="none"/><g fill="#fbf9ed"><path d="M22.4,52.26667c-2.69275,-0.03808 -5.19741,1.37667 -6.55489,3.70252c-1.35749,2.32585 -1.35749,5.20245 0,7.5283c1.35749,2.32585 3.86215,3.7406 6.55489,3.70252h179.2c2.69275,0.03808 5.19741,-1.37667 6.55489,-3.70252c1.35749,-2.32585 1.35749,-5.20245 0,-7.5283c-1.35749,-2.32585 -3.86215,-3.7406 -6.55489,-3.70252zM22.4,104.53333c-2.69275,-0.03808 -5.19741,1.37667 -6.55489,3.70252c-1.35749,2.32585 -1.35749,5.20245 0,7.5283c1.35749,2.32585 3.86215,3.7406 6.55489,3.70252h179.2c2.69275,0.03808 5.19741,-1.37667 6.55489,-3.70252c1.35749,-2.32585 1.35749,-5.20245 0,-7.5283c-1.35749,-2.32585 -3.86215,-3.7406 -6.55489,-3.70252zM22.4,156.8c-2.69275,-0.03808 -5.19741,1.37667 -6.55489,3.70252c-1.35749,2.32585 -1.35749,5.20245 0,7.5283c1.35749,2.32585 3.86215,3.7406 6.55489,3.70252h179.2c2.69275,0.03808 5.19741,-1.37667 6.55489,-3.70252c1.35749,-2.32585 1.35749,-5.20245 0,-7.5283c-1.35749,-2.32585 -3.86215,-3.7406 -6.55489,-3.70252z"/></g></g></svg>
